<svg width="21" height="21" viewBox="0 0 21 21" fill="none" xmlns="http://www.w3.org/2000/svg">
<g id="Iconly/Light-Outline/Activity">
<g id="Activity">
<path id="Fill 1" fill-rule="evenodd" clip-rule="evenodd" d="M6.31227 14.0025C6.17227 14.0025 6.03139 13.9579 5.91239 13.8669C5.62539 13.6455 5.57114 13.2334 5.79252 12.9464L8.41139 9.5426C8.51814 9.40348 8.67652 9.31335 8.84977 9.29148C9.02652 9.26873 9.19977 9.31773 9.33714 9.4271L11.8046 11.3652L13.9633 8.5801C14.1855 8.29223 14.5968 8.23885 14.8838 8.46285C15.1708 8.6851 15.2233 9.09723 15.001 9.38335L12.4373 12.6909C12.3305 12.8291 12.173 12.9192 11.9998 12.9402C11.8248 12.9639 11.6515 12.9131 11.5133 12.8055L9.04752 10.8682L6.83289 13.7461C6.70339 13.9141 6.50914 14.0025 6.31227 14.0025Z" fill="#F43939"/>
<g id="Group 5">
<mask id="mask0_1_1245" style="mask-type:luminance" maskUnits="userSpaceOnUse" x="15" y="1" width="5" height="6">
<path id="Clip 4" fill-rule="evenodd" clip-rule="evenodd" d="M15.134 1.75024H19.81V6.42703H15.134V1.75024Z" fill="white"/>
</mask>
<g mask="url(#mask0_1_1245)">
<path id="Fill 3" fill-rule="evenodd" clip-rule="evenodd" d="M17.472 3.06257C16.9067 3.06257 16.4465 3.52195 16.4465 4.08807C16.4465 4.65332 16.9067 5.11445 17.472 5.11445C18.0372 5.11445 18.4975 4.65332 18.4975 4.08807C18.4975 3.52195 18.0372 3.06257 17.472 3.06257ZM17.472 6.42712C16.1832 6.42712 15.134 5.37799 15.134 4.08824C15.134 2.79849 16.1832 1.75024 17.472 1.75024C18.7618 1.75024 19.81 2.79849 19.81 4.08824C19.81 5.37799 18.7618 6.42712 17.472 6.42712Z" fill="#F43939"/>
</g>
</g>
<g id="Group 8">
<mask id="mask1_1_1245" style="mask-type:luminance" maskUnits="userSpaceOnUse" x="1" y="2" width="19" height="18">
<path id="Clip 7" fill-rule="evenodd" clip-rule="evenodd" d="M1.74854 2.48706H19.1277V19.8654H1.74854V2.48706Z" fill="white"/>
</mask>
<g mask="url(#mask1_1_1245)">
<path id="Fill 6" fill-rule="evenodd" clip-rule="evenodd" d="M14.2024 19.8654H6.67391C3.72779 19.8654 1.74854 17.7961 1.74854 14.7161V7.64431C1.74854 4.55994 3.72779 2.48706 6.67391 2.48706H13.0334C13.3957 2.48706 13.6897 2.78106 13.6897 3.14331C13.6897 3.50556 13.3957 3.79956 13.0334 3.79956H6.67391C4.47941 3.79956 3.06104 5.30806 3.06104 7.64431V14.7161C3.06104 17.0829 4.44529 18.5529 6.67391 18.5529H14.2024C16.3969 18.5529 17.8153 17.0471 17.8153 14.7161V8.55694C17.8153 8.19469 18.1093 7.90069 18.4715 7.90069C18.8338 7.90069 19.1278 8.19469 19.1278 8.55694V14.7161C19.1278 17.7961 17.1485 19.8654 14.2024 19.8654Z" fill="#F43939"/>
</g>
</g>
</g>
</g>
</svg>
